<?xml version="1.0" encoding="utf-8"?>
<!-- Generator: Adobe Illustrator 19.1.0, SVG Export Plug-In . SVG Version: 6.00 Build 0)  -->
<svg version="1.1" id="Layer_1" xmlns="http://www.w3.org/2000/svg" xmlns:xlink="http://www.w3.org/1999/xlink" x="0px" y="0px"
	 viewBox="-206 371 198 51" style="enable-background:new -206 371 198 51;" xml:space="preserve">
<style type="text/css">
	.st0{fill:none;}
	.st1{fill:#0B8340;}
</style>
<rect x="-282" y="371" class="st0" width="198" height="51"/>
<g>
	<path class="st1" d="M-141.9,373.2c0-0.8-0.7-1.5-1.5-1.5h-4.5v40h6V373.2z"/>
	<path class="st1" d="M-128.3,382.1c0,0-4.3-0.2-8.8,1.9v5.3c0,0,3.8-1.8,8.4-1.8c2.9,0,6.6,0.9,6.6,5.8h-6.2
		c-6.4,0-11.2,3.1-11.2,9.5c0,5.1,3.2,9.6,9.7,9.6c5,0,7.6-2.5,7.6-2.5v1.9h6v-18.5C-116.2,385.3-121.1,382.1-128.3,382.1z
		 M-122.2,404c0,0-2.9,3-6.7,3c-3.7,0-4.4-2.6-4.4-4.2c0-1.6,0.5-4.2,5.2-4.2c0.8,0,5.9,0,5.9,0V404z"/>
	<path class="st1" d="M-150.2,397.2c0-7.4-4-15.1-13.7-15.1c-9.7,0-13.7,7.7-13.7,15.1c0,7.4,4.1,15.1,13.7,15.1
		C-154.2,412.3-150.2,404.6-150.2,397.2z M-171.4,397.2c0-6.2,3.1-9.8,7.5-9.8c4.4,0,7.5,3.6,7.5,9.8c0,6.2-3,9.7-7.5,9.7
		C-168.3,407-171.4,403.4-171.4,397.2z"/>
	<rect x="-65.3" y="382.8" class="st1" width="6" height="28.9"/>
	<path class="st1" d="M-40.9,406.9c-2.4,0-4.2-0.9-4.2-3.6v-15.1h7.9l-2.2-5.4h-5.7v-6c0-0.8-0.7-1.5-1.5-1.5h-4.5v7.5h-5.2v5.4h5.2
		v16.2v0.1c0,3.5,2.2,7.8,9.2,7.8c3.8,0,6.3-1.1,7.2-1.5c-0.3-0.9-1.6-3.9-1.9-4.7C-37.9,406.6-39.3,406.9-40.9,406.9z"/>
	<path class="st1" d="M-107.3,393.3c0-4.9,3.7-5.8,6.6-5.8c0.9,0,1.8,0.1,2.7,0.2c0.1-1.1,0.3-2.1,0.5-3c0.2-0.8,0.4-1.5,0.6-2.2
		c-2.5-0.5-4.3-0.4-4.3-0.4c-7.2,0-12.1,3.2-12.1,11.2v18.4h6V393.3z"/>
	<path class="st1" d="M-14.1,382.8l-8.2,20.3l-8-20.3h-6.1l11.1,27.5l-4.8,11.3h5.1c0.6,0,1.1-0.3,1.3-0.8l15.7-38H-14.1z"/>
	<path class="st1" d="M-77.5,412.3c4.6,0,8.6-1.7,9.3-1.9v-6c-1.6,0.7-4.9,2.1-9.2,2.1c-2.1,0-11.5-0.9-11.5-14.9
		s9.3-15.1,11.5-15.1c3.4,0,5.8,1,7.1,1.5c0.2-0.6,2.1-5.4,2.1-5.4c-0.7-0.1-4.4-1.6-9.2-1.6c-3.4,0-18.2,1.6-18.2,20.7
		C-95.6,410.9-81.3,412.3-77.5,412.3z"/>
	<rect x="-65.3" y="373.6" class="st1" width="6" height="6.1"/>
	<path class="st1" d="M-191.8,388.6c-5.1-1.3-7.7-2.4-7.7-5.8c0-2.7,1.2-5.9,7.5-5.9c3.9,0,7.3,1.2,8.8,1.9c0.4-0.8,2.2-5.4,2.2-5.4
		s-4.3-2.4-11.2-2.4c-7.8,0-13.7,4.2-13.7,12c0,7.6,5.5,9.8,12.2,11.3c5.4,1.2,7.7,2.5,7.7,6c0,3.3-1.4,6.2-8.6,6.2
		c-6.9,0-11.4-2.7-11.4-2.7v6c1.9,1.3,6.5,2.6,11.1,2.6c11.4,0,15.3-6.1,15.3-12.2C-179.6,392.2-185.1,390-191.8,388.6z"/>
</g>
</svg>
